<svg xmlns="http://www.w3.org/2000/svg" version="1.1" xmlns:xlink="http://www.w3.org/1999/xlink" xmlns:svgjs="http://svgjs.dev/svgjs" width="1500" height="968" viewBox="0 0 1500 968"><g transform="matrix(1,0,0,1,-0.37945322352868516,-1.5612903225806463)"><svg viewBox="0 0 384 248" data-background-color="#ffffff" preserveAspectRatio="xMidYMid meet" height="968" width="1500" xmlns="http://www.w3.org/2000/svg" xmlns:xlink="http://www.w3.org/1999/xlink"><g id="tight-bounds" transform="matrix(1,0,0,1,0.09714002522335363,0.4000000000000057)"><svg viewBox="0 0 383.8057199495533 247.2" height="247.2" width="383.8057199495533"><g><svg viewBox="0 0 395.52 254.74488502373293" height="247.2" width="383.8057199495533"><g transform="matrix(1,0,0,1,0,153.22572393097295)"><svg viewBox="0 0 395.52 101.51916109276" height="101.51916109276" width="395.52"><g id="textblocktransform"><svg viewBox="0 0 395.52 101.51916109276" height="101.51916109276" width="395.52" id="textblock"><g><svg viewBox="0 0 395.52 54.75458454386983" height="54.75458454386983" width="395.52"><g transform="matrix(1,0,0,1,0,0)"><svg width="395.52" viewBox="1.1 -35.9 344.16999999999996 47.65" height="54.75458454386983" data-palette-color="#2b3bf0"><path d="M3.5-24.85L3.5-24.85Q2.7-24.75 2.3-24.75 1.9-24.75 1.1-24.85L1.1-24.85 1.1-33.95Q8.1-33.8 14.7-33.8L14.7-33.8 28.3-33.95 28.3-24.85Q27.5-24.75 27.1-24.75 26.7-24.75 25.9-24.85L25.9-24.85Q25.7-28.05 23.7-31L23.7-31Q20.9-31.3 17.1-31.35L17.1-31.35 17.1-3.4Q18.9-2.4 22.25-2L22.25-2 22 0 7.2 0 7.5-2Q10.6-2.35 12.35-3.4L12.35-3.4 12.35-31.35Q8-31.3 5.7-31.05L5.7-31.05Q4.7-29.7 4.13-27.93 3.55-26.15 3.5-24.85ZM35-3.3L35-18.7Q35-20.7 34.17-21.43 33.35-22.15 31.25-22.25L31.25-22.25 31.4-23.85Q32.5-24.05 38-25.65L38-25.65 38.95-25.15 39.5-21.4Q42.35-25.65 45.95-25.65L45.95-25.65Q47.9-25.65 49.32-24.5 50.75-23.35 50.75-21.63 50.75-19.9 49.97-18.9 49.2-17.9 48.07-17.9 46.95-17.9 46.15-18.35 45.35-18.8 45.15-19.55L45.15-19.55Q45.7-20.1 45.7-21.05L45.7-21.05Q45.7-22.7 44.15-22.7 42.6-22.7 41.1-20.4 39.6-18.1 39.6-15.55L39.6-15.55 39.6-3.3Q41.1-2.3 43.85-1.85L43.85-1.85 43.65 0 31.25 0 31.45-1.95Q33.6-2.3 35-3.3L35-3.3ZM60.25 0.4L60.25 0.4Q57.05 0.4 55.27-1.23 53.5-2.85 53.5-6.08 53.5-9.3 55.97-11.3 58.45-13.3 63.2-13.65L63.2-13.65 67.45-13.95 67.45-18.35Q67.45-21.05 66.37-22.28 65.3-23.5 62.95-23.5L62.95-23.5Q58.7-23.5 58.7-21.05L58.7-21.05Q58.7-19.7 60.35-19.05L60.35-19.05Q60.35-16.5 57.25-16.5L57.25-16.5Q55.85-16.5 55-17.35 54.15-18.2 54.15-19.6L54.15-19.6Q54.15-22.4 56.52-24.03 58.9-25.65 63.07-25.65 67.25-25.65 69.65-23.73 72.05-21.8 72.05-18.35L72.05-18.35 72.05-3.3Q73.3-2.35 75.8-1.85L75.8-1.85 75.59 0 68.15 0 67.59-2.4Q64.65 0.4 60.25 0.4ZM58.25-6.25L58.25-6.25Q58.25-1.85 61.65-1.85L61.65-1.85Q64.34-1.85 67.45-4.95L67.45-4.95 67.45-11.75 63.4-11.4Q61-11.2 59.62-9.8 58.25-8.4 58.25-6.25ZM81.89-3.3L81.89-18.8Q81.89-20.8 81.07-21.53 80.24-22.25 78.14-22.35L78.14-22.35 78.29-23.95Q80.34-24.3 85.44-25.8L85.44-25.8 86.49-25.25 86.49-3.3Q87.84-2.3 90.24-1.85L90.24-1.85 90.04 0 78.14 0 78.34-1.95Q80.49-2.3 81.89-3.3L81.89-3.3ZM86.74-32.77Q86.74-29.65 83.92-29.65 81.09-29.65 81.09-32.77 81.09-35.9 83.92-35.9 86.74-35.9 86.74-32.77ZM96.64-3.3L96.64-18.7Q96.64-20.7 95.82-21.43 94.99-22.15 92.89-22.25L92.89-22.25 93.04-23.85Q94.14-24.05 99.64-25.65L99.64-25.65 100.59-25.15 101.09-21.8Q103.89-25.65 107.99-25.65 112.09-25.65 114.29-23.68 116.49-21.7 116.49-18.2L116.49-18.2 116.49-3.3Q117.74-2.35 120.24-1.85L120.24-1.85 120.04 0 108.19 0 108.34-1.85Q110.34-2.15 111.89-3.3L111.89-3.3 111.89-17.7Q111.89-23.05 107.29-23.05L107.29-23.05Q105.44-23.05 103.74-21.8 102.04-20.55 101.24-18.55L101.24-18.55 101.24-3.3Q102.59-2.3 104.99-1.85L104.99-1.85 104.79 0 92.89 0 93.09-1.95Q95.24-2.3 96.64-3.3L96.64-3.3ZM126.54-3.3L126.54-18.8Q126.54-20.8 125.71-21.53 124.89-22.25 122.79-22.35L122.79-22.35 122.94-23.95Q124.99-24.3 130.09-25.8L130.09-25.8 131.14-25.25 131.14-3.3Q132.49-2.3 134.89-1.85L134.89-1.85 134.69 0 122.79 0 122.99-1.95Q125.14-2.3 126.54-3.3L126.54-3.3ZM131.39-32.77Q131.39-29.65 128.56-29.65 125.74-29.65 125.74-32.77 125.74-35.9 128.56-35.9 131.39-35.9 131.39-32.77ZM141.29-3.3L141.29-18.7Q141.29-20.7 140.46-21.43 139.64-22.15 137.54-22.25L137.54-22.25 137.69-23.85Q138.79-24.05 144.29-25.65L144.29-25.65 145.24-25.15 145.74-21.8Q148.54-25.65 152.64-25.65 156.74-25.65 158.94-23.68 161.14-21.7 161.14-18.2L161.14-18.2 161.14-3.3Q162.39-2.35 164.89-1.85L164.89-1.85 164.69 0 152.84 0 152.99-1.85Q154.99-2.15 156.54-3.3L156.54-3.3 156.54-17.7Q156.54-23.05 151.94-23.05L151.94-23.05Q150.09-23.05 148.39-21.8 146.69-20.55 145.89-18.55L145.89-18.55 145.89-3.3Q147.24-2.3 149.64-1.85L149.64-1.85 149.44 0 137.54 0 137.74-1.95Q139.89-2.3 141.29-3.3L141.29-3.3ZM168.53-16.65L168.53-16.65Q168.53-25.65 178.43-25.65L178.43-25.65Q182.03-25.65 184.38-24.35L184.38-24.35Q186.38-24.95 186.38-26.45L186.38-26.45Q186.38-27.65 184.88-28.4L184.88-28.4Q184.88-29.2 185.58-29.7 186.28-30.2 187.46-30.2 188.63-30.2 189.38-29.48 190.13-28.75 190.13-27.55L190.13-27.55Q190.13-24.25 186.33-22.85L186.33-22.85Q188.33-20.55 188.33-16.63 188.33-12.7 185.68-10.35 183.03-8 178.43-8L178.43-8 177.68-8 174.93-4.65Q174.98-3.45 175.91-3 176.83-2.55 178.83-2.5L178.83-2.5 181.08-2.5Q186.08-2.5 188.41-0.6 190.73 1.3 190.73 4.25L190.73 4.25Q190.73 11.75 179.33 11.75L179.33 11.75Q173.63 11.75 170.76 9.93 167.88 8.1 167.88 5.18 167.88 2.25 168.78 0.98 169.68-0.3 172.03-1.6L172.03-1.6Q170.83-2.9 170.83-5.15L170.83-5.15 175.28-8.3Q172.08-9.05 170.31-11.25 168.53-13.45 168.53-16.65ZM174.61-11.75Q175.78-10.2 178.43-10.2 181.08-10.2 182.26-11.75 183.43-13.3 183.43-16.8 183.43-20.3 182.26-21.9 181.08-23.5 178.43-23.5 175.78-23.5 174.61-21.9 173.43-20.3 173.43-16.8 173.43-13.3 174.61-11.75ZM179.83 0L179.83 0 175.23 0Q172.78 1.65 172.78 4.25L172.78 4.25Q172.78 9.55 179.31 9.55 185.83 9.55 185.83 4.25L185.83 4.25Q185.83 0 179.83 0ZM217.68 0.25L217.68 0.25Q211.78 0.25 209.08-2.83 206.38-5.9 206.38-12.55L206.38-12.55Q206.38-25.5 217.93-25.5L217.93-25.5Q221.63-25.5 223.93-23.93 226.23-22.35 226.23-19.8L226.23-19.8Q226.23-18.5 225.38-17.55 224.53-16.6 223.45-16.6 222.38-16.6 221.58-17.15 220.78-17.7 220.58-18.55L220.58-18.55Q221.28-19.65 221.28-20.75 221.28-21.85 220.35-22.7 219.43-23.55 217.93-23.55L217.93-23.55Q214.53-23.55 212.95-20.93 211.38-18.3 211.38-12.58 211.38-6.85 212.85-4.38 214.33-1.9 217.68-1.9L217.68-1.9Q222.13-1.9 223.88-6.65L223.88-6.65 226.08-5.9Q225.18-3.05 222.93-1.4 220.68 0.25 217.68 0.25ZM249.33-13.05L234.83-13.05 234.83-12.25Q234.83-6.05 236.48-3.9L236.48-3.9Q238.03-1.9 241.55-1.9 245.08-1.9 247.58-4.85L247.58-4.85 249.28-3.15Q246.23 0.4 241.08 0.4L241.08 0.4Q235.03 0.4 232.45-2.95 229.88-6.3 229.88-12.55 229.88-18.8 232.68-22.23 235.48-25.65 240.78-25.65 246.08-25.65 248.18-22.85 250.28-20.05 250.43-14.5L250.43-14.5 249.33-13.05ZM240.68-23.45L240.68-23.45Q234.98-23.45 234.83-15.05L234.83-15.05 245.58-15.45Q245.58-19.65 244.53-21.55 243.48-23.45 240.68-23.45ZM257.47-3.3L257.47-18.7Q257.47-20.7 256.65-21.43 255.82-22.15 253.72-22.25L253.72-22.25 253.87-23.85Q254.97-24.05 260.47-25.65L260.47-25.65 261.42-25.15 261.92-21.8Q264.72-25.65 268.82-25.65 272.92-25.65 275.12-23.68 277.32-21.7 277.32-18.2L277.32-18.2 277.32-3.3Q278.57-2.35 281.07-1.85L281.07-1.85 280.87 0 269.02 0 269.17-1.85Q271.17-2.15 272.72-3.3L272.72-3.3 272.72-17.7Q272.72-23.05 268.12-23.05L268.12-23.05Q266.27-23.05 264.57-21.8 262.87-20.55 262.07-18.55L262.07-18.55 262.07-3.3Q263.42-2.3 265.82-1.85L265.82-1.85 265.62 0 253.72 0 253.92-1.95Q256.07-2.3 257.47-3.3L257.47-3.3ZM287.17-6.25L287.17-6.25 287.17-22.5 282.77-22.5 282.77-24Q288.07-25.8 289.67-30.55L289.67-30.55 291.82-30.55 291.82-25.3 297.92-25.3 297.92-22.5 291.77-22.5 291.77-5.85Q291.77-3.85 292.22-3 292.67-2.15 294.27-2.15 295.87-2.15 297.62-3.2L297.62-3.2 298.67-1.6Q296.17 0.4 292.87 0.4 289.57 0.4 288.37-1.13 287.17-2.65 287.17-6.25ZM321.17-13.05L306.67-13.05 306.67-12.25Q306.67-6.05 308.32-3.9L308.32-3.9Q309.87-1.9 313.39-1.9 316.92-1.9 319.42-4.85L319.42-4.85 321.12-3.15Q318.07 0.4 312.92 0.4L312.92 0.4Q306.87 0.4 304.29-2.95 301.72-6.3 301.72-12.55 301.72-18.8 304.52-22.23 307.32-25.65 312.62-25.65 317.92-25.65 320.02-22.85 322.12-20.05 322.27-14.5L322.27-14.5 321.17-13.05ZM312.52-23.45L312.52-23.45Q306.82-23.45 306.67-15.05L306.67-15.05 317.42-15.45Q317.42-19.65 316.37-21.55 315.32-23.45 312.52-23.45ZM329.52-3.3L329.52-18.7Q329.52-20.7 328.69-21.43 327.87-22.15 325.77-22.25L325.77-22.25 325.92-23.85Q327.02-24.05 332.52-25.65L332.52-25.65 333.47-25.15 334.02-21.4Q336.87-25.65 340.47-25.65L340.47-25.65Q342.42-25.65 343.84-24.5 345.27-23.35 345.27-21.63 345.27-19.9 344.49-18.9 343.72-17.9 342.59-17.9 341.47-17.9 340.67-18.35 339.87-18.8 339.67-19.55L339.67-19.55Q340.22-20.1 340.22-21.05L340.22-21.05Q340.22-22.7 338.67-22.7 337.12-22.7 335.62-20.4 334.12-18.1 334.12-15.55L334.12-15.55 334.12-3.3Q335.62-2.3 338.37-1.85L338.37-1.85 338.17 0 325.77 0 325.97-1.95Q328.12-2.3 329.52-3.3L329.52-3.3Z" opacity="1" transform="matrix(1,0,0,1,0,0)" fill="#2b3bf0" class="wordmark-text-0" data-fill-palette-color="primary" id="text-0"></path></svg></g></svg></g><g transform="matrix(1,0,0,1,0,67.68082784464845)"><svg viewBox="0 0 395.52 33.83833324811155" height="33.83833324811155" width="395.52"><g transform="matrix(1,0,0,1,0,0)"><svg width="395.52" viewBox="1.51 -42.29 790.46 67.63" height="33.83833324811155" data-palette-color="#2b52f0"><path d="M16.89-23L16.89-23Q16.89-22.51 16.5-22.36L16.5-22.36Q15.67-21.97 14.87-21.63 14.06-21.29 13.28-20.75L13.28-20.75Q10.01-18.75 7.67-15.67 5.32-12.6 4.35-8.89L4.35-8.89Q3.91-6.98 3.91-5.03L3.91-5.03Q3.91-4.35 4-3.54 4.1-2.73 4.37-1.95 4.64-1.17 5.1-0.54 5.57 0.1 6.3 0.39L6.3 0.39Q6.35 0.44 6.47 0.44 6.59 0.44 6.64 0.44L6.64 0.44Q7.86 0.44 8.89-0.22 9.91-0.88 10.74-1.71L10.74-1.71Q12.06-3.03 13.23-4.74L13.23-4.74Q13.48-5.08 13.72-5.42 13.96-5.76 14.21-6.05L14.21-6.05Q14.36-6.3 14.65-6.3L14.65-6.3Q14.94-6.3 15.21-6.08 15.48-5.86 15.48-5.57L15.48-5.57Q15.48-5.47 15.26-5.08 15.04-4.69 14.75-4.22 14.45-3.76 14.18-3.34 13.92-2.93 13.82-2.78L13.82-2.78Q13.13-1.76 12.38-0.78 11.62 0.2 10.72 0.93 9.81 1.66 8.69 2.1 7.57 2.54 6.25 2.54L6.25 2.54Q5.96 2.54 5.81 2.49L5.81 2.49Q4.88 2.34 4.17 1.78 3.47 1.22 2.95 0.42 2.44-0.39 2.15-1.29 1.86-2.2 1.71-3.03L1.71-3.03Q1.61-3.61 1.56-4.2 1.51-4.79 1.51-5.42L1.51-5.42Q1.51-7.52 2-9.42L2-9.42Q2.49-11.57 3.44-13.67 4.39-15.77 5.76-17.58 7.13-19.38 8.89-20.78 10.64-22.17 12.79-23L12.79-23Q13.53-23.29 14.45-23.56 15.38-23.83 16.21-23.83L16.21-23.83Q16.46-23.83 16.67-23.54 16.89-23.24 16.89-23ZM70.38-17.58L70.38-17.58Q70.38-15.72 69.97-13.53 69.55-11.33 68.72-9.13 67.89-6.93 66.7-4.86 65.5-2.78 63.96-1.17 62.42 0.44 60.54 1.39 58.66 2.34 56.52 2.34L56.52 2.34Q54.9 2.34 53.73 1.49 52.56 0.63 51.75-0.68 50.95-2 50.56-3.54 50.17-5.08 50.17-6.45L50.17-6.45Q50.17-8.06 50.61-9.62L50.61-9.62Q51.97-14.11 55-17.63 58.03-21.14 62.37-22.9L62.37-22.9Q62.47-22.95 62.62-22.95L62.62-22.95Q62.96-22.95 63.13-22.71 63.3-22.46 63.3-22.17L63.3-22.17Q63.3-21.83 62.91-21.58L62.91-21.58Q62.23-21.19 61.54-20.83 60.86-20.46 60.18-19.92L60.18-19.92Q57.49-17.97 55.59-15.09 53.68-12.21 52.71-9.03L52.71-9.03Q52.37-8.01 52.37-6.74L52.37-6.74Q52.37-5.71 52.66-4.54 52.95-3.37 53.54-2.37 54.12-1.37 55.03-0.71 55.93-0.05 57.15-0.05L57.15-0.05Q57.93-0.05 58.64-0.34 59.35-0.63 59.98-1.07L59.98-1.07Q61.84-2.39 63.3-4.49 64.77-6.59 65.79-9.01 66.82-11.43 67.36-13.94 67.89-16.46 67.89-18.7L67.89-18.7 67.89-19.29Q67.79-20.56 67.04-21.44 66.28-22.31 65.16-22.85L65.16-22.85Q64.82-23 64.5-23.1 64.18-23.19 63.89-23.34L63.89-23.34Q63.4-23.54 63.4-24.02L63.4-24.02Q63.4-24.37 63.6-24.61 63.79-24.85 64.13-24.8L64.13-24.8 64.18-24.8Q65.26-24.71 66.31-24.32 67.36-23.93 68.19-23.24 69.02-22.56 69.58-21.63 70.14-20.7 70.29-19.53L70.29-19.53Q70.38-19.04 70.38-18.58 70.38-18.12 70.38-17.58ZM126.41-7.62L126.41-7.62Q125.14-5.03 123.77-3 122.41-0.98 120.21 0.93L120.21 0.93Q119.13 1.9 117.77 1.9L117.77 1.9Q117.04 1.9 116.38 1.49 115.72 1.07 115.47 0.34L115.47 0.34Q115.37 0.1 115.35-0.34 115.33-0.78 115.3-1.27 115.28-1.76 115.3-2.22 115.33-2.69 115.33-2.98L115.33-2.98Q113.62-0.93 111.3 0.51 108.98 1.95 106.2 1.95L106.2 1.95Q106.05 1.95 105.78 1.86 105.51 1.76 105.37 1.71L105.37 1.71Q104.24 1.17 103.68 0 103.12-1.17 103.12-2.34L103.12-2.34Q103.12-3.96 103.53-5.54 103.95-7.13 104.66-8.62 105.37-10.11 106.29-11.47 107.22-12.84 108.25-14.06L108.25-14.06Q110.88-17.33 114.3-19.75 117.72-22.17 121.72-23.63L121.72-23.63Q121.77-23.68 121.92-23.68L121.92-23.68Q122.26-23.68 122.43-23.44 122.6-23.19 122.6-22.9L122.6-22.9Q122.6-22.46 122.26-22.31L122.26-22.31Q121.43-21.88 120.62-21.51 119.82-21.14 119.04-20.7L119.04-20.7Q113.62-17.58 109.91-12.7L109.91-12.7Q109.17-11.72 108.39-10.5 107.61-9.28 106.98-7.98 106.34-6.69 105.93-5.32 105.51-3.96 105.51-2.69L105.51-2.69Q105.51-2.49 105.56-2.12 105.61-1.76 105.71-1.39 105.8-1.03 106.02-0.76 106.24-0.49 106.54-0.49L106.54-0.49Q107.95-0.49 109.3-1.22 110.64-1.95 111.81-3.08 112.98-4.2 113.91-5.47 114.84-6.74 115.42-7.86L115.42-7.86Q116.55-9.91 117.43-11.99 118.3-14.06 119.18-16.16L119.18-16.16Q119.53-17.04 119.99-18.21 120.45-19.38 120.89-20.21L120.89-20.21Q121.09-20.56 121.53-20.56L121.53-20.56Q121.87-20.56 122.11-20.36 122.36-20.17 122.36-19.82L122.36-19.82 122.31-19.73Q121.92-17.97 121.43-16.19 120.94-14.4 120.36-12.7L120.36-12.7Q120.11-12.01 119.77-11.18 119.43-10.35 119.23-9.77L119.23-9.77Q119.13-9.42 119.11-9.08 119.09-8.74 119.04-8.4L119.04-8.4Q118.89-7.62 118.72-6.86 118.55-6.1 118.35-5.32L118.35-5.32Q118.11-4.35 117.94-3.34 117.77-2.34 117.77-1.32L117.77-1.32Q117.77-1.07 117.77-0.88 117.77-0.68 117.82-0.49L117.82-0.49Q118.16-0.49 118.62-0.78 119.09-1.07 119.57-1.49 120.06-1.9 120.48-2.34 120.89-2.78 121.14-3.03L121.14-3.03Q122.6-4.59 123.92-6.49L123.92-6.49Q124.26-6.88 124.53-7.35 124.8-7.81 125.14-8.2L125.14-8.2Q125.29-8.45 125.58-8.45L125.58-8.45Q125.92-8.45 126.17-8.2 126.41-7.96 126.41-7.62ZM175.06-23L175.06-23Q175.06-22.51 174.67-22.36L174.67-22.36Q173.84-21.97 173.04-21.63 172.23-21.29 171.45-20.75L171.45-20.75Q168.18-18.75 165.84-15.67 163.49-12.6 162.52-8.89L162.52-8.89Q162.08-6.98 162.08-5.03L162.08-5.03Q162.08-4.35 162.17-3.54 162.27-2.73 162.54-1.95 162.81-1.17 163.27-0.54 163.74 0.1 164.47 0.39L164.47 0.39Q164.52 0.44 164.64 0.44 164.76 0.44 164.81 0.44L164.81 0.44Q166.03 0.44 167.06-0.22 168.08-0.88 168.91-1.71L168.91-1.71Q170.23-3.03 171.4-4.74L171.4-4.74Q171.65-5.08 171.89-5.42 172.13-5.76 172.38-6.05L172.38-6.05Q172.53-6.3 172.82-6.3L172.82-6.3Q173.11-6.3 173.38-6.08 173.65-5.86 173.65-5.57L173.65-5.57Q173.65-5.47 173.43-5.08 173.21-4.69 172.92-4.22 172.62-3.76 172.35-3.34 172.09-2.93 171.99-2.78L171.99-2.78Q171.3-1.76 170.55-0.78 169.79 0.2 168.89 0.93 167.98 1.66 166.86 2.1 165.74 2.54 164.42 2.54L164.42 2.54Q164.13 2.54 163.98 2.49L163.98 2.49Q163.05 2.34 162.34 1.78 161.64 1.22 161.12 0.42 160.61-0.39 160.32-1.29 160.03-2.2 159.88-3.03L159.88-3.03Q159.78-3.61 159.73-4.2 159.68-4.79 159.68-5.42L159.68-5.42Q159.68-7.52 160.17-9.42L160.17-9.42Q160.66-11.57 161.61-13.67 162.56-15.77 163.93-17.58 165.3-19.38 167.06-20.78 168.81-22.17 170.96-23L170.96-23Q171.7-23.29 172.62-23.56 173.55-23.83 174.38-23.83L174.38-23.83Q174.62-23.83 174.84-23.54 175.06-23.24 175.06-23ZM232.95-3.17L232.95-3.17Q232.95-2.78 232.7-2.69L232.7-2.69Q232.12-2.15 231.07-1.44 230.02-0.73 228.87-0.1 227.72 0.54 226.6 1 225.48 1.46 224.7 1.46L224.7 1.46Q224.11 1.46 223.62 1.2 223.13 0.93 222.77 0.49 222.4 0.05 222.18-0.49 221.96-1.03 221.96-1.56L221.96-1.56Q221.96-1.66 221.99-1.78 222.01-1.9 222.01-2L222.01-2Q222.16-3.08 222.3-4.1 222.45-5.13 222.74-6.15L222.74-6.15Q223.23-8.11 223.94-9.99 224.65-11.87 225.35-13.75 226.06-15.63 226.72-17.5 227.38-19.38 227.82-21.34L227.82-21.34Q227.92-21.63 227.94-21.92 227.97-22.22 228.02-22.51L228.02-22.51Q227.19-22.41 226.14-21.88 225.09-21.34 224.01-20.61 222.94-19.87 221.99-19.07 221.03-18.26 220.4-17.72L220.4-17.72Q219.62-17.04 218.59-16.11 217.57-15.19 216.59-14.16 215.61-13.13 214.78-12.08 213.95-11.04 213.61-10.06L213.61-10.06Q213.22-9.08 212.98-8.08 212.73-7.08 212.39-6.1L212.39-6.1Q211.76-4.05 211.05-2 210.34 0.05 209.51 2.1L209.51 2.1Q209.22 2.78 208.92 3.54 208.63 4.3 208.24 4.93L208.24 4.93Q208.04 5.27 207.65 5.27L207.65 5.27Q207.41 5.27 207.12 5.05 206.82 4.83 206.82 4.54L206.82 4.54Q206.82 4.49 206.9 4.2 206.97 3.91 207.04 3.54 207.12 3.17 207.19 2.86 207.26 2.54 207.26 2.44L207.26 2.44Q208.39-2.49 209.95-7.23 211.51-11.96 213.03-16.8L213.03-16.8Q214.34-21.09 215.71-25.32 217.08-29.54 218.49-33.79L218.49-33.79Q218.93-35.21 219.4-36.62 219.86-38.04 220.35-39.45L220.35-39.45Q220.59-40.04 220.76-40.67 220.94-41.31 221.18-41.89L221.18-41.89Q221.33-42.29 221.77-42.29L221.77-42.29Q222.01-42.29 222.3-42.07 222.6-41.85 222.6-41.55L222.6-41.55 222.55-41.5Q220.98-35.25 219.2-29.1 217.42-22.95 215.56-16.8L215.56-16.8Q216.59-17.87 218.15-19.31 219.71-20.75 221.47-22.02 223.23-23.29 225.06-24.19 226.89-25.1 228.46-25.1L228.46-25.1Q228.8-25.1 229.14-24.9 229.48-24.71 229.77-24.39 230.07-24.07 230.26-23.71 230.46-23.34 230.46-23L230.46-23Q230.46-22.46 230.41-21.9 230.36-21.34 230.21-20.8L230.21-20.8Q229.72-18.85 229.04-16.94 228.36-15.04 227.6-13.16 226.84-11.28 226.11-9.4 225.38-7.52 224.79-5.57L224.79-5.57Q224.55-4.74 224.28-3.69 224.01-2.64 224.01-1.76L224.01-1.76Q224.01-1.32 224.13-0.88 224.26-0.44 224.79-0.44L224.79-0.44Q225.67-0.44 226.89-0.98 228.11-1.51 229.24-2.17 230.36-2.83 231.19-3.39 232.02-3.96 232.21-3.96L232.21-3.96Q232.56-3.96 232.75-3.71 232.95-3.47 232.95-3.17ZM278.67-36.38L278.67-36.38Q278.67-36.08 278.43-35.69L278.43-35.69 278.38-35.55Q278.48-35.25 278.48-35.11L278.48-35.11Q278.13-34.86 277.99-34.59 277.84-34.33 277.3-34.33L277.3-34.33Q276.87-34.33 276.43-34.69 275.99-35.06 275.99-35.6L275.99-35.6Q275.99-36.47 276.16-37.04 276.33-37.6 277.45-37.6L277.45-37.6Q277.89-37.6 278.28-37.21 278.67-36.82 278.67-36.38ZM278.33-5.22L278.33-5.22Q278.33-4.98 278.18-4.83L278.18-4.83Q277.26-3.71 276.4-2.61 275.55-1.51 274.59-0.59 273.64 0.34 272.47 1 271.3 1.66 269.79 1.95L269.79 1.95Q268.47 1.37 267.98 0.42 267.49-0.54 267.49-1.9L267.49-1.9 267.49-3.66Q267.49-4.93 267.76-6.3 268.03-7.67 268.32-8.94L268.32-8.94Q268.76-10.84 269.32-13.04 269.88-15.23 270.64-17.41 271.4-19.58 272.37-21.61 273.35-23.63 274.57-25.15L274.57-25.15Q274.81-25.39 275.06-25.39L275.06-25.39Q275.35-25.39 275.64-25.17 275.94-24.95 275.94-24.61L275.94-24.61 275.94-24.51Q275.11-21.92 274.06-19.07 273.01-16.21 272.06-13.26 271.1-10.3 270.44-7.37 269.79-4.44 269.79-1.71L269.79-1.71Q269.79-1.42 269.81-0.88 269.83-0.34 270.13-0.2L270.13-0.2Q271.2-0.39 272.4-1.32 273.59-2.25 274.64-3.27 275.69-4.3 276.47-5.13 277.26-5.96 277.55-5.96L277.55-5.96Q277.79-5.96 278.06-5.71 278.33-5.47 278.33-5.22ZM334.5-3.27L334.5-3.27Q334.5-2.98 334.26-2.83L334.26-2.83Q333.72-2.39 332.99-1.86 332.26-1.32 331.43-0.81 330.6-0.29 329.79 0.15 328.99 0.59 328.35 0.83L328.35 0.83Q327.23 1.32 326.25 1.32L326.25 1.32Q324.79 1.32 324.13 0.27 323.47-0.78 323.47-2.05L323.47-2.05Q323.47-3.56 323.96-5.49 324.45-7.42 325.13-9.42 325.81-11.43 326.57-13.35 327.33-15.28 327.86-16.75L327.86-16.75Q328.4-18.16 328.84-19.6 329.28-21.04 329.43-22.61L329.43-22.61Q328.55-22.51 327.03-21.63 325.52-20.75 323.88-19.6 322.25-18.46 320.78-17.33 319.32-16.21 318.49-15.63L318.49-15.63 316.73-12.11Q315.56-9.81 314.51-7.54 313.46-5.27 312.48-2.93L312.48-2.93Q312.04-1.81 311.65-0.68 311.26 0.44 310.77 1.56L310.77 1.56Q310.63 1.95 310.24 1.95L310.24 1.95Q310.04 1.95 309.72 1.71 309.41 1.46 309.41 1.27L309.41 1.27Q309.41 1.22 309.48 0.95 309.55 0.68 309.63 0.34 309.7 0 309.77-0.29 309.85-0.59 309.85-0.68L309.85-0.68Q310.68-3.91 311.87-7.03 313.07-10.16 314.53-13.18L314.53-13.18Q315.22-14.6 315.85-16.04 316.49-17.48 317.17-18.9L317.17-18.9Q317.46-19.43 317.88-20.21 318.29-21 318.76-21.8 319.22-22.61 319.71-23.32 320.2-24.02 320.64-24.41L320.64-24.41Q320.83-24.61 321.08-24.61L321.08-24.61Q321.27-24.61 321.61-24.34 321.96-24.07 321.96-23.83L321.96-23.83Q321.96-23.68 321.78-23.14 321.61-22.61 321.37-22 321.12-21.39 320.91-20.83 320.69-20.26 320.64-20.07L320.64-20.07Q321.47-20.85 322.57-21.78 323.66-22.71 324.91-23.49 326.15-24.27 327.47-24.78 328.79-25.29 329.96-25.29L329.96-25.29Q330.65-25.29 331.26-24.68 331.87-24.07 331.96-23.39L331.96-23.39Q332.06-22.9 332.06-22.66L332.06-22.66Q332.06-21.83 331.75-20.63 331.43-19.43 331.13-18.6L331.13-18.6Q330.65-17.19 329.72-14.87 328.79-12.55 327.86-10.11 326.94-7.67 326.25-5.42 325.57-3.17 325.57-1.9L325.57-1.9Q325.57-1.37 325.67-1 325.76-0.63 326.4-0.63L326.4-0.63Q327.28-0.63 328.47-1.17 329.67-1.71 330.79-2.37 331.92-3.03 332.75-3.56 333.58-4.1 333.77-4.1L333.77-4.1Q334.06-4.1 334.28-3.83 334.5-3.56 334.5-3.27ZM386.38-22.27L386.38-22.27Q386.38-22.17 386.28-21.97L386.28-21.97Q386.19-21.14 386.11-20.39 386.04-19.63 385.89-18.85L385.89-18.85Q385.65-17.24 385.36-15.67 385.06-14.11 384.72-12.55L384.72-12.55Q383.5-6.93 381.72-1.51 379.94 3.91 377.79 9.23L377.79 9.23Q377.01 11.13 376.15 13.06 375.3 14.99 374.25 16.82 373.2 18.65 371.93 20.31 370.66 21.97 369.05 23.34L369.05 23.34Q366.8 25.34 363.87 25.34L363.87 25.34Q362.31 25.34 360.84 24.8 359.38 24.27 358.11 23.36 356.84 22.46 355.84 21.22 354.84 19.97 354.3 18.55L354.3 18.55Q354.25 18.51 354.25 18.31L354.25 18.31Q354.25 18.02 354.5 17.82 354.74 17.63 355.03 17.63L355.03 17.63Q355.37 17.63 355.62 17.97L355.62 17.97Q355.86 18.41 356.08 18.85 356.3 19.29 356.64 19.68L356.64 19.68Q357.91 21.24 359.75 22.29 361.58 23.34 363.58 23.34L363.58 23.34Q365.87 23.34 367.63 21.73L367.63 21.73Q369 20.51 370.22 18.75 371.44 16.99 372.54 14.94 373.64 12.89 374.59 10.64 375.54 8.4 376.35 6.18 377.15 3.96 377.84 1.86 378.52-0.24 379.11-2L379.11-2Q377.35-0.29 375.3 0.68 373.25 1.66 370.76 1.66L370.76 1.66Q370.71 1.66 370.61 1.66 370.51 1.66 370.46 1.61L370.46 1.61Q369.34 1.37 368.58 0.73 367.83 0.1 367.36-0.76 366.9-1.61 366.7-2.61 366.51-3.61 366.51-4.64L366.51-4.64Q366.51-7.57 367.36-10.45 368.22-13.33 369.93-15.77L369.93-15.77Q371-17.24 372.37-18.63 373.73-20.02 375.35-21.07 376.96-22.12 378.76-22.78 380.57-23.44 382.47-23.44L382.47-23.44Q382.77-23.44 383.4-23.39 384.04-23.34 384.7-23.22 385.36-23.1 385.87-22.85 386.38-22.61 386.38-22.27ZM384.67-21.68L384.67-21.68Q383.94-21.88 383.01-21.88L383.01-21.88Q381.3-21.88 379.64-21.24 377.98-20.61 376.52-19.56 375.05-18.51 373.83-17.19 372.61-15.87 371.68-14.55L371.68-14.55Q370.32-12.5 369.61-10.01 368.9-7.52 368.9-5.03L368.9-5.03Q368.9-4.49 368.97-3.76 369.05-3.03 369.27-2.37 369.49-1.71 369.95-1.25 370.41-0.78 371.15-0.78L371.15-0.78Q372.66-0.78 374.1-1.51 375.54-2.25 376.76-3.37 377.98-4.49 378.93-5.88 379.89-7.28 380.47-8.54L380.47-8.54Q381.94-11.72 382.84-15.04 383.74-18.36 384.67-21.68ZM483.25-23L483.25-23Q483.25-22.51 482.86-22.36L482.86-22.36Q482.03-21.97 481.22-21.63 480.42-21.29 479.64-20.75L479.64-20.75Q476.37-18.75 474.02-15.67 471.68-12.6 470.7-8.89L470.7-8.89Q470.26-6.98 470.26-5.03L470.26-5.03Q470.26-4.35 470.36-3.54 470.46-2.73 470.73-1.95 470.99-1.17 471.46-0.54 471.92 0.1 472.65 0.39L472.65 0.39Q472.7 0.44 472.83 0.44 472.95 0.44 473 0.44L473 0.44Q474.22 0.44 475.24-0.22 476.27-0.88 477.1-1.71L477.1-1.71Q478.42-3.03 479.59-4.74L479.59-4.74Q479.83-5.08 480.08-5.42 480.32-5.76 480.56-6.05L480.56-6.05Q480.71-6.3 481-6.3L481-6.3Q481.3-6.3 481.57-6.08 481.83-5.86 481.83-5.57L481.83-5.57Q481.83-5.47 481.61-5.08 481.39-4.69 481.1-4.22 480.81-3.76 480.54-3.34 480.27-2.93 480.17-2.78L480.17-2.78Q479.49-1.76 478.73-0.78 477.98 0.2 477.07 0.93 476.17 1.66 475.05 2.1 473.92 2.54 472.61 2.54L472.61 2.54Q472.31 2.54 472.17 2.49L472.17 2.49Q471.24 2.34 470.53 1.78 469.82 1.22 469.31 0.42 468.8-0.39 468.5-1.29 468.21-2.2 468.06-3.03L468.06-3.03Q467.97-3.61 467.92-4.2 467.87-4.79 467.87-5.42L467.87-5.42Q467.87-7.52 468.36-9.42L468.36-9.42Q468.85-11.57 469.8-13.67 470.75-15.77 472.12-17.58 473.48-19.38 475.24-20.78 477-22.17 479.15-23L479.15-23Q479.88-23.29 480.81-23.56 481.74-23.83 482.57-23.83L482.57-23.83Q482.81-23.83 483.03-23.54 483.25-23.24 483.25-23ZM532.64-3.17L532.64-3.17Q532.64-2.93 532.44-2.73L532.44-2.73Q531.66-2 530.54-1.07 529.41-0.15 528.17 0.63 526.92 1.42 525.63 1.95 524.34 2.49 523.26 2.49L523.26 2.49Q521.7 2.49 520.82 1.71 519.94 0.93 519.48-0.22 519.01-1.37 518.89-2.71 518.77-4.05 518.77-5.22L518.77-5.22Q518.77-7.96 519.31-10.6 519.84-13.23 520.48-15.87L520.48-15.87Q521.7-21 523.43-25.88 525.17-30.76 527.8-35.35L527.8-35.35Q528.29-36.23 528.8-37.11 529.32-37.99 529.9-38.77L529.9-38.77Q530.1-39.06 530.44-39.06L530.44-39.06Q530.73-39.06 531-38.87 531.27-38.67 531.27-38.33L531.27-38.33Q531.27-38.18 531.22-38.09L531.22-38.09Q529.02-32.42 526.68-26.81 524.34-21.19 522.87-15.28L522.87-15.28Q522.19-12.65 521.63-9.94 521.06-7.23 521.06-4.44L521.06-4.44Q521.06-3.71 521.09-2.86 521.11-2 521.33-1.27 521.55-0.54 522.07-0.02 522.58 0.49 523.55 0.49L523.55 0.49Q524.63 0.49 525.97-0.2 527.31-0.88 528.56-1.73 529.8-2.59 530.73-3.27 531.66-3.96 531.86-3.96L531.86-3.96Q532.15-3.96 532.39-3.71 532.64-3.47 532.64-3.17ZM585.93-7.62L585.93-7.62Q584.66-5.03 583.29-3 581.93-0.98 579.73 0.93L579.73 0.93Q578.65 1.9 577.29 1.9L577.29 1.9Q576.55 1.9 575.9 1.49 575.24 1.07 574.99 0.34L574.99 0.34Q574.89 0.1 574.87-0.34 574.85-0.78 574.82-1.27 574.8-1.76 574.82-2.22 574.85-2.69 574.85-2.98L574.85-2.98Q573.14-0.93 570.82 0.51 568.5 1.95 565.71 1.95L565.71 1.95Q565.57 1.95 565.3 1.86 565.03 1.76 564.88 1.71L564.88 1.71Q563.76 1.17 563.2 0 562.64-1.17 562.64-2.34L562.64-2.34Q562.64-3.96 563.05-5.54 563.47-7.13 564.18-8.62 564.88-10.11 565.81-11.47 566.74-12.84 567.77-14.06L567.77-14.06Q570.4-17.33 573.82-19.75 577.24-22.17 581.24-23.63L581.24-23.63Q581.29-23.68 581.44-23.68L581.44-23.68Q581.78-23.68 581.95-23.44 582.12-23.19 582.12-22.9L582.12-22.9Q582.12-22.46 581.78-22.31L581.78-22.31Q580.95-21.88 580.14-21.51 579.34-21.14 578.56-20.7L578.56-20.7Q573.14-17.58 569.43-12.7L569.43-12.7Q568.69-11.72 567.91-10.5 567.13-9.28 566.5-7.98 565.86-6.69 565.45-5.32 565.03-3.96 565.03-2.69L565.03-2.69Q565.03-2.49 565.08-2.12 565.13-1.76 565.23-1.39 565.32-1.03 565.54-0.76 565.76-0.49 566.06-0.49L566.06-0.49Q567.47-0.49 568.82-1.22 570.16-1.95 571.33-3.08 572.5-4.2 573.43-5.47 574.36-6.74 574.94-7.86L574.94-7.86Q576.07-9.91 576.95-11.99 577.82-14.06 578.7-16.16L578.7-16.16Q579.04-17.04 579.51-18.21 579.97-19.38 580.41-20.21L580.41-20.21Q580.61-20.56 581.05-20.56L581.05-20.56Q581.39-20.56 581.63-20.36 581.88-20.17 581.88-19.82L581.88-19.82 581.83-19.73Q581.44-17.97 580.95-16.19 580.46-14.4 579.87-12.7L579.87-12.7Q579.63-12.01 579.29-11.18 578.95-10.35 578.75-9.77L578.75-9.77Q578.65-9.42 578.63-9.08 578.61-8.74 578.56-8.4L578.56-8.4Q578.41-7.62 578.24-6.86 578.07-6.1 577.87-5.32L577.87-5.32Q577.63-4.35 577.46-3.34 577.29-2.34 577.29-1.32L577.29-1.32Q577.29-1.07 577.29-0.88 577.29-0.68 577.34-0.49L577.34-0.49Q577.68-0.49 578.14-0.78 578.61-1.07 579.09-1.49 579.58-1.9 580-2.34 580.41-2.78 580.66-3.03L580.66-3.03Q582.12-4.59 583.44-6.49L583.44-6.49Q583.78-6.88 584.05-7.35 584.32-7.81 584.66-8.2L584.66-8.2Q584.81-8.45 585.1-8.45L585.1-8.45Q585.44-8.45 585.69-8.2 585.93-7.96 585.93-7.62ZM640.2-23.44L640.2-23.44Q640.2-22.8 639.61-22.71L639.61-22.71Q639.37-22.61 639.15-22.63 638.93-22.66 638.69-22.61L638.69-22.61Q638.1-22.56 637.54-22.46 636.98-22.36 636.39-22.27L636.39-22.27Q633.75-21.73 631.24-20.53 628.72-19.34 626.87-17.38L626.87-17.38Q626.33-16.8 626.01-16.14 625.7-15.48 625.7-14.65L625.7-14.65Q625.7-14.11 626.28-13.82 626.87-13.53 627.72-13.23 628.58-12.94 629.58-12.6 630.58-12.26 631.43-11.62 632.29-10.99 632.87-9.99 633.46-8.98 633.46-7.42L633.46-7.42Q633.46-5.62 632.78-3.96 632.09-2.29 630.87-1 629.65 0.29 628.04 1.05 626.43 1.81 624.62 1.81L624.62 1.81Q622.91 1.81 621.62 1.07 620.33 0.34 619.45-0.83 618.57-2 618.13-3.49 617.69-4.98 617.69-6.54L617.69-6.54Q617.69-6.84 617.71-7.3 617.74-7.76 617.81-8.2 617.88-8.64 618.08-8.98 618.28-9.33 618.67-9.33L618.67-9.33Q618.91-9.33 619.18-9.13 619.45-8.94 619.45-8.64L619.45-8.64Q619.45-7.52 619.72-6.15 619.98-4.79 620.57-3.61 621.16-2.44 622.13-1.64 623.11-0.83 624.53-0.83L624.53-0.83Q625.79-0.83 626.97-1.39 628.14-1.95 629.04-2.88 629.95-3.81 630.46-5 630.97-6.2 630.97-7.47L630.97-7.47 630.97-7.96Q630.97-8.79 630.41-9.33 629.85-9.86 629.02-10.23 628.19-10.6 627.21-10.94 626.23-11.28 625.4-11.74 624.57-12.21 624.01-12.89 623.45-13.57 623.45-14.7L623.45-14.7Q623.45-15.87 623.96-16.94 624.48-18.02 625.31-18.85L625.31-18.85Q628.19-21.63 631.92-22.88 635.66-24.12 639.61-24.12L639.61-24.12Q639.91-24.12 640.05-23.9 640.2-23.68 640.2-23.44ZM690.95-23.44L690.95-23.44Q690.95-22.8 690.37-22.71L690.37-22.71Q690.12-22.61 689.9-22.63 689.68-22.66 689.44-22.61L689.44-22.61Q688.85-22.56 688.29-22.46 687.73-22.36 687.14-22.27L687.14-22.27Q684.51-21.73 681.99-20.53 679.48-19.34 677.62-17.38L677.62-17.38Q677.09-16.8 676.77-16.14 676.45-15.48 676.45-14.65L676.45-14.65Q676.45-14.11 677.04-13.82 677.62-13.53 678.48-13.23 679.33-12.94 680.33-12.6 681.33-12.26 682.19-11.62 683.04-10.99 683.63-9.99 684.21-8.98 684.21-7.42L684.21-7.42Q684.21-5.62 683.53-3.96 682.85-2.29 681.63-1 680.41 0.29 678.79 1.05 677.18 1.81 675.38 1.81L675.38 1.81Q673.67 1.81 672.37 1.07 671.08 0.34 670.2-0.83 669.32-2 668.88-3.49 668.44-4.98 668.44-6.54L668.44-6.54Q668.44-6.84 668.47-7.3 668.49-7.76 668.57-8.2 668.64-8.64 668.83-8.98 669.03-9.33 669.42-9.33L669.42-9.33Q669.66-9.33 669.93-9.13 670.2-8.94 670.2-8.64L670.2-8.64Q670.2-7.52 670.47-6.15 670.74-4.79 671.32-3.61 671.91-2.44 672.89-1.64 673.86-0.83 675.28-0.83L675.28-0.83Q676.55-0.83 677.72-1.39 678.89-1.95 679.8-2.88 680.7-3.81 681.21-5 681.72-6.2 681.72-7.47L681.72-7.47 681.72-7.96Q681.72-8.79 681.16-9.33 680.6-9.86 679.77-10.23 678.94-10.6 677.96-10.94 676.99-11.28 676.16-11.74 675.33-12.21 674.77-12.89 674.21-13.57 674.21-14.7L674.21-14.7Q674.21-15.87 674.72-16.94 675.23-18.02 676.06-18.85L676.06-18.85Q678.94-21.63 682.68-22.88 686.41-24.12 690.37-24.12L690.37-24.12Q690.66-24.12 690.81-23.9 690.95-23.68 690.95-23.44ZM738.48-20.36L738.48-20.36Q738.48-19.14 737.9-17.94 737.31-16.75 736.41-15.67 735.51-14.6 734.43-13.72 733.36-12.84 732.43-12.21L732.43-12.21Q731.01-11.23 729.48-10.4 727.94-9.57 726.13-9.57L726.13-9.57Q725.74-9.57 725.28-9.67 724.81-9.77 724.81-10.3L724.81-10.3Q724.81-10.99 725.45-11.13L725.45-11.13Q725.59-11.18 725.79-11.18 725.98-11.18 726.18-11.23L726.18-11.23Q726.72-11.33 727.23-11.57 727.74-11.82 728.28-12.11L728.28-12.11Q729.11-12.65 730.38-13.62 731.65-14.6 732.87-15.77 734.09-16.94 734.94-18.16 735.8-19.38 735.8-20.46L735.8-20.46Q735.8-21.14 735.07-21.14L735.07-21.14Q734.77-21.14 734.48-21.04 734.19-20.95 733.89-20.85L733.89-20.85Q731.55-20.07 729.6-18.48 727.64-16.89 726.23-14.79 724.81-12.7 724.01-10.3 723.2-7.91 723.2-5.52L723.2-5.52Q723.2-4.74 723.32-3.74 723.45-2.73 723.81-1.86 724.18-0.98 724.81-0.37 725.45 0.24 726.47 0.24L726.47 0.24Q726.86 0.24 727.21 0.12 727.55 0 727.89-0.2L727.89-0.2Q729.21-0.93 730.33-2.17 731.45-3.42 732.33-4.69L732.33-4.69Q732.58-4.98 732.8-5.32 733.02-5.66 733.26-6.01L733.26-6.01Q733.41-6.25 733.75-6.25L733.75-6.25Q734.04-6.25 734.31-6.05 734.58-5.86 734.58-5.52L734.58-5.52Q734.58-5.42 734.48-5.22L734.48-5.22Q733.89-4.15 733.02-2.86 732.14-1.56 731.06-0.44 729.99 0.68 728.74 1.44 727.5 2.2 726.13 2.2L726.13 2.2Q724.62 2.2 723.62 1.34 722.62 0.49 722.03-0.76 721.44-2 721.2-3.44 720.96-4.88 720.96-6.05L720.96-6.05Q720.96-9.77 722.52-13.16 724.08-16.55 726.72-19.14L726.72-19.14Q727.5-19.92 728.52-20.73 729.55-21.53 730.7-22.19 731.84-22.85 733.04-23.27 734.24-23.68 735.36-23.68L735.36-23.68Q736.78-23.68 737.63-22.73 738.48-21.78 738.48-20.36ZM791.97-23.44L791.97-23.44Q791.97-22.8 791.39-22.71L791.39-22.71Q791.14-22.61 790.92-22.63 790.7-22.66 790.46-22.61L790.46-22.61Q789.87-22.56 789.31-22.46 788.75-22.36 788.16-22.27L788.16-22.27Q785.53-21.73 783.01-20.53 780.5-19.34 778.64-17.38L778.64-17.38Q778.11-16.8 777.79-16.14 777.47-15.48 777.47-14.65L777.47-14.65Q777.47-14.11 778.06-13.82 778.64-13.53 779.5-13.23 780.35-12.94 781.35-12.6 782.35-12.26 783.21-11.62 784.06-10.99 784.65-9.99 785.23-8.98 785.23-7.42L785.23-7.42Q785.23-5.62 784.55-3.96 783.87-2.29 782.65-1 781.43 0.29 779.81 1.05 778.2 1.81 776.4 1.81L776.4 1.81Q774.69 1.81 773.39 1.07 772.1 0.34 771.22-0.83 770.34-2 769.9-3.49 769.46-4.98 769.46-6.54L769.46-6.54Q769.46-6.84 769.49-7.3 769.51-7.76 769.58-8.2 769.66-8.64 769.85-8.98 770.05-9.33 770.44-9.33L770.44-9.33Q770.68-9.33 770.95-9.13 771.22-8.94 771.22-8.64L771.22-8.64Q771.22-7.52 771.49-6.15 771.76-4.79 772.34-3.61 772.93-2.44 773.91-1.64 774.88-0.83 776.3-0.83L776.3-0.83Q777.57-0.83 778.74-1.39 779.91-1.95 780.82-2.88 781.72-3.81 782.23-5 782.74-6.2 782.74-7.47L782.74-7.47 782.74-7.96Q782.74-8.79 782.18-9.33 781.62-9.86 780.79-10.23 779.96-10.6 778.98-10.94 778.01-11.28 777.18-11.74 776.35-12.21 775.79-12.89 775.22-13.57 775.22-14.7L775.22-14.7Q775.22-15.87 775.74-16.94 776.25-18.02 777.08-18.85L777.08-18.85Q779.96-21.63 783.7-22.88 787.43-24.12 791.39-24.12L791.39-24.12Q791.68-24.12 791.83-23.9 791.97-23.68 791.97-23.44Z" opacity="1" transform="matrix(1,0,0,1,0,0)" fill="#2b52f0" class="slogan-text-1" data-fill-palette-color="secondary" id="text-1"></path></svg></g></svg></g></svg></g></svg></g><g transform="matrix(1,0,0,1,119.61025993154945,0)"><svg viewBox="0 0 156.29948013690108 140.29948063019432" height="140.29948063019432" width="156.29948013690108"><g><svg xmlns="http://www.w3.org/2000/svg" data-name="Layer 1" viewBox="2 2 60 60.00000021096012" x="8" y="0" height="140.29948063019432" width="140.29948013690108" class="icon-icon-0" data-fill-palette-color="accent" id="icon-0"><path d="M13.225 20.2A0.227 0.227 0 0 0 12.775 20.2C12.052 25.977 10.975 27.055 5.197 27.778A0.227 0.227 0 0 0 5.197 28.228C10.974 28.951 12.052 30.028 12.775 35.806A0.227 0.227 0 0 0 13.225 35.806C13.948 30.029 15.025 28.951 20.803 28.228A0.227 0.227 0 0 0 20.803 27.778C15.026 27.052 13.948 25.974 13.225 20.2" fill="#1c323b" data-fill-palette-color="accent"></path><path d="M57.33 10.91L59.73 8.51 55.49 4.27 53.09 6.67A12.4 12.4 0 0 0 50 5.39V2H44V5.39A12.4 12.4 0 0 0 40.91 6.67L38.51 4.27 34.27 8.51 36.67 10.91A12.4 12.4 0 0 0 35.39 14H32V20H35.39A12.4 12.4 0 0 0 36.67 23.09L34.27 25.49 38.51 29.73 40.91 27.33A12.4 12.4 0 0 0 44 28.61V32H50V28.61A12.4 12.4 0 0 0 53.09 27.33L55.49 29.73 59.73 25.49 57.33 23.09A12.4 12.4 0 0 0 58.61 20H62V14H58.61A12.4 12.4 0 0 0 57.33 10.91M47 24A7 7 0 1 1 54 17 7.01 7.01 0 0 1 47 24" fill="#1c323b" data-fill-palette-color="accent"></path><path d="M48 12H46V17A1 1 0 0 0 47 18H51V16H48Z" fill="#1c323b" data-fill-palette-color="accent"></path><path d="M42 50H40.8A10 10 0 0 0 21.2 54L7 56V56.333L2 58V60H7V62H31A10 10 0 0 0 40.8 54H42A2 2 0 0 0 42 50M31 59A7 7 0 1 1 38 52 7.01 7.01 0 0 1 31 59" fill="#1c323b" data-fill-palette-color="accent"></path><circle cx="31" cy="52" r="5.0" fill="#1c323b" data-fill-palette-color="accent"></circle></svg></g></svg></g><g><rect width="113.7531199063261" height="4.937824940897431" y="134.3616556892969" x="275.90974006845056" fill="#1c323b" data-fill-palette-color="accent"></rect><rect width="113.7531199063261" height="4.937824940897431" y="134.3616556892969" x="5.8571400252233445" fill="#1c323b" data-fill-palette-color="accent"></rect><rect width="113.7531199063261" height="4.937824940897431" y="124.48600580750204" x="275.90974006845056" fill="#1c323b" data-fill-palette-color="accent"></rect><rect width="113.7531199063261" height="4.937824940897431" y="124.48600580750204" x="5.8571400252233445" fill="#1c323b" data-fill-palette-color="accent"></rect></g></svg></g><defs></defs></svg><rect width="383.8057199495533" height="247.2" fill="none" stroke="none" visibility="hidden"></rect></g></svg></g></svg>